Coordinates
version=1
nRows=49
nColumns=12
inDegrees=yes

Units are S.I. units (second, meters, Newtons, ...)
Angles are in degrees

endheader
time	SC_y	SC_z	SC_x	AC_y	AC_z	AC_x	GH_y	GH_z	GH_yy	EL_x	PS_y
       0.0              -47.06          33.48          10.22          49.57          9.355         -2.496         -160.0          38.93         -173.9          83.92          155.0
  0.005155              -47.06          33.48          10.22          49.57          9.354         -2.497         -160.0          38.92         -173.8          83.91          155.0
   0.01031              -47.06          33.47          10.22          49.56          9.353         -2.497         -159.9          38.91         -173.8           83.9          155.0
   0.01547              -47.06          33.47          10.22          49.56          9.352         -2.497         -159.9           38.9         -173.8          83.89          155.0
   0.02062              -47.05          33.46          10.22          49.56           9.35         -2.497         -159.8          38.89         -173.8          83.88          155.0
   0.02578              -47.05          33.46          10.23          49.55          9.349         -2.497         -159.8          38.88         -173.8          83.87          155.0
   0.03093              -47.05          33.45          10.23          49.55          9.347         -2.497         -159.7          38.87         -173.8          83.86          155.0
   0.03609              -47.05          33.44          10.23          49.55          9.345         -2.498         -159.7          38.85         -173.7          83.84          155.0
   0.04124              -47.05          33.44          10.23          49.54          9.343         -2.498         -159.6          38.84         -173.7          83.83          155.0
    0.0464              -47.04          33.43          10.23          49.54          9.341         -2.498         -159.5          38.83         -173.7          83.82          155.0
   0.05155              -47.04          33.42          10.23          49.54          9.339         -2.498         -159.5          38.81         -173.7           83.8          155.0
   0.05671              -47.04          33.41          10.23          49.53          9.337         -2.499         -159.4           38.8         -173.6          83.78          155.0
   0.06186              -47.03          33.41          10.23          49.53          9.334         -2.499         -159.3          38.78         -173.6          83.76          155.0
   0.06702              -47.03           33.4          10.23          49.52          9.331         -2.499         -159.2          38.76         -173.6          83.75          155.0
   0.07217              -47.03          33.38          10.24          49.52          9.328           -2.5         -159.1          38.74         -173.6          83.72          155.0
   0.07733              -47.02          33.37          10.24          49.51          9.325           -2.5         -159.0          38.72         -173.5           83.7          155.0
   0.08248              -47.02          33.36          10.24           49.5          9.321           -2.5         -158.9          38.69         -173.5          83.68          155.0
   0.08764              -47.01          33.35          10.24           49.5          9.318         -2.501         -158.7          38.67         -173.4          83.65          155.0
    0.0928              -47.01          33.33          10.24          49.49          9.313         -2.501         -158.6          38.64         -173.4          83.62          155.0
   0.09795               -47.0          33.32          10.24          49.48          9.309         -2.502         -158.4          38.61         -173.3          83.59          155.0
    0.1031               -47.0           33.3          10.25          49.47          9.304         -2.502         -158.3          38.57         -173.3          83.55          155.0
    0.1083              -46.99          33.28          10.25          49.46          9.298         -2.503         -158.1          38.53         -173.2          83.51          155.0
    0.1134              -46.98          33.26          10.25          49.45          9.292         -2.504         -157.9          38.49         -173.2          83.47          155.0
    0.1186              -46.97          33.23          10.26          49.44          9.285         -2.504         -157.6          38.45         -173.1          83.42          155.0
    0.1237              -46.97          33.21          10.26          49.42          9.278         -2.505         -157.4          38.39         -173.0          83.37          155.0
    0.1289              -46.95          33.18          10.26          49.41          9.269         -2.506         -157.1          38.34         -172.9          83.31          155.0
     0.134              -46.94          33.14          10.27          49.39           9.26         -2.507         -156.8          38.27         -172.8          83.24          155.0
    0.1392              -46.93          33.11          10.27          49.37          9.249         -2.508         -156.4           38.2         -172.7          83.17          155.0
    0.1443              -46.92          33.06          10.28          49.35          9.237          -2.51         -156.0          38.12         -172.5          83.08          155.0
    0.1495               -46.9          33.02          10.29          49.32          9.223         -2.511         -155.6          38.03         -172.4          82.99          155.0
    0.1547              -46.88          32.96           10.3          49.29          9.208         -2.513         -155.0          37.92         -172.2          82.88          155.0
    0.1598              -46.86           32.9           10.3          49.26           9.19         -2.515         -154.4           37.8         -172.0          82.75          155.0
     0.165              -46.83          32.83          10.31          49.22          9.169         -2.517         -153.8          37.66         -171.8           82.6          155.1
    0.1701               -46.8          32.74          10.33          49.17          9.145          -2.52         -152.9          37.49         -171.5          82.43          155.1
    0.1753              -46.77          32.64          10.34          49.12          9.117         -2.523         -152.0           37.3         -171.2          82.24          155.1
    0.1804              -46.73          32.53          10.36          49.06          9.084         -2.527         -150.9          37.08         -170.9           82.0          155.1
    0.1856              -46.68          32.39          10.38          48.99          9.045         -2.531         -149.6          36.81         -170.4          81.73          155.1
    0.1907              -46.62          32.22           10.4           48.9          8.998         -2.537         -148.0          36.49         -169.9          81.39          155.1
    0.1959              -46.55          32.02          10.43          48.79          8.941         -2.543         -146.1           36.1         -169.3          80.99          155.1
    0.2011              -46.46          31.77          10.46          48.66          8.871         -2.551         -143.7          35.63         -168.5           80.5          155.1
    0.2062              -46.36          31.47          10.51           48.5          8.785         -2.561         -140.8          35.04         -167.5          79.89          155.2
    0.2114              -46.23          31.09          10.56           48.3          8.678         -2.573         -137.2          34.31         -166.4          79.14          155.2
    0.2165              -46.06          30.62          10.63          48.05          8.543         -2.588         -132.7          33.39         -164.9          78.19          155.2
    0.2217              -45.85          30.01          10.72          47.72          8.371         -2.607         -126.9          32.22         -163.0          76.98          155.3
    0.2268              -45.58          29.24          10.83          47.31          8.152         -2.632         -119.6          30.72         -160.5          75.43          155.3
     0.232              -45.23          28.25          10.97          46.79           7.87         -2.664         -110.1           28.8         -157.4          73.44          155.4
    0.2371              -44.78          26.98          11.15          46.11          7.509         -2.704          -98.0          26.35         -153.4           70.9          155.5
    0.2423              -44.22          25.38          11.38          45.26          7.057         -2.755         -82.79          23.27         -148.4          67.71          155.6
    0.2475              -43.54          23.44          11.65          44.23          6.505         -2.817         -64.26          19.51         -142.3          63.81          155.7
